# xmcd CD database file
#
# Track frame offsets:
#	150
#	23235
#	43714
#	69202
#	97269
#	127675
#	162656
#	189390
#	214124
#	236668
#	250028
#
# Disc length: 3864 seconds
#
# Revision: 0
# Processed by: cddbd v1.5.2PL0 Copyright (c) Steve Scherf et al.
# Submitted via: CDex 1.70beta2
#
DISCID=920f160b
DTITLE=Various Artist - JAZZ IT!
DYEAR=2004
DGENRE=Jazz
TTITLE0=flyin' down to rio - Crate Soul Brothers
TTITLE1=get off - Alessandro Oliviero
TTITLE2=chica da ici - Mokadi
TTITLE3=tumbao - Kresho
TTITLE4=missed torsion(Amalgamations of Sounds Remix) - Zero Crossing
TTITLE5=dazzling - Aflex Combo
TTITLE6=rythm of life - Zero Crossing
TTITLE7=Mrs. McCoy(Math Union Remix) - Liquid Loop
TTITLE8=spring seems to be - Hipnosis with Merit Ostermann
TTITLE9=wishing on a star - Mokadi
TTITLE10=touching you(Lars Behrenrot's Subtle Koffee Mix) - Talk
EXTD=YEAR: 2004
EXTT0=
EXTT1=
EXTT2=
EXTT3=
EXTT4=
EXTT5=
EXTT6=
EXTT7=
EXTT8=
EXTT9=
EXTT10=
PLAYORDER=
